<svg xmlns="http://www.w3.org/2000/svg" viewBox="0 0 49.389 32.686" height="123.538" width="186.667"><path d="M13.314 6.116a5.554 5.554 0 0 0-10.221-.024 8.13 8.13 0 0 0-1.188-.379 6.805 6.805 0 0 1 6.293-4.237 6.803 6.803 0 0 1 6.298 4.253 8.1 8.1 0 0 0-1.182.387m-2.37 1.5a2.827 2.827 0 0 0-2.746-2.168 2.825 2.825 0 0 0-2.733 2.119 8.273 8.273 0 0 0-1.089-.817 4.123 4.123 0 0 1 3.822-2.593 4.122 4.122 0 0 1 3.835 2.63 8.3 8.3 0 0 0-1.089.83m-2.746 2.05a1.395 1.395 0 0 1-1.393-1.392A1.395 1.395 0 0 1 8.198 6.88a1.397 1.397 0 0 1 1.393 1.394 1.396 1.396 0 0 1-1.393 1.393m8.265-8.234V0a2.825 2.825 0 0 0-2.745 2.176 8.286 8.286 0 0 0-1.088-.834c.196-.502.485-.958.85-1.342h-1.786c-.127.214-.24.438-.339.67a8.202 8.202 0 0 0-1.184-.39 5.89 5.89 0 0 1 .12-.28H6.175c.04.086.077.175.114.265a8.107 8.107 0 0 0-1.187.38A5.597 5.597 0 0 0 4.772 0H2.986c.356.375.64.817.837 1.305a8.272 8.272 0 0 0-1.088.819A2.825 2.825 0 0 0 0 0v1.434c.77.001 1.392.624 1.393 1.393A1.396 1.396 0 0 1 0 4.22v2.704a6.8 6.8 0 0 1 6.175 3.971h4.116a6.803 6.803 0 0 1 6.172-3.971V4.219a1.395 1.395 0 0 1-1.39-1.392 1.395 1.395 0 0 1 1.39-1.393m-4.769 9.461h1.785a4.112 4.112 0 0 1 2.984-1.291V8.17a5.546 5.546 0 0 0-4.769 2.725M0 8.17v1.434c1.178.003 2.236.5 2.986 1.291h1.786A5.544 5.544 0 0 0 0 8.17"/><path d="M12.033 6.787a4.123 4.123 0 0 0-3.836-2.63 4.123 4.123 0 0 0-3.82 2.593c.385.242.749.515 1.088.816a2.825 2.825 0 0 1 2.732-2.118c1.335 0 2.45.925 2.748 2.168a8.31 8.31 0 0 1 1.088-.83M1.905 5.714a8.1 8.1 0 0 1 1.188.38 5.553 5.553 0 0 1 10.22.023 8.185 8.185 0 0 1 1.183-.388 6.804 6.804 0 0 0-6.298-4.252 6.805 6.805 0 0 0-6.293 4.237m6.292 1.169a1.395 1.395 0 0 0-1.392 1.392c.001.77.624 1.392 1.392 1.394a1.396 1.396 0 0 0 1.394-1.394 1.395 1.395 0 0 0-1.394-1.392m6.876-4.056c.002.769.622 1.39 1.39 1.394V1.434a1.395 1.395 0 0 0-1.39 1.392m-13.68 0A1.395 1.395 0 0 0 0 1.434V4.22a1.395 1.395 0 0 0 1.393-1.394m8.898 8.07h1.403a5.545 5.545 0 0 1 4.77-2.726V6.924a6.804 6.804 0 0 0-6.173 3.971M.001 6.924H0V8.17a5.544 5.544 0 0 1 4.772 2.725h1.403A6.803 6.803 0 0 0 .001 6.924m16.462 3.971V9.604a4.113 4.113 0 0 0-2.983 1.291zM0 10.895h2.986A4.113 4.113 0 0 0 0 9.604zM11.694 0h-1.403a7.65 7.65 0 0 0-.12.281c.407.1.803.23 1.184.389a5.54 5.54 0 0 1 .34-.67m4.768 0H13.48a4.14 4.14 0 0 0-.85 1.342c.386.248.75.527 1.088.834A2.826 2.826 0 0 1 16.463 0M6.29.266A7.44 7.44 0 0 0 6.175 0H4.772c.123.207.234.423.33.647A8.14 8.14 0 0 1 6.289.266M2.735 2.124c.34-.302.702-.576 1.088-.82A4.142 4.142 0 0 0 2.986 0H0c1.318 0 2.422.903 2.735 2.124" fill="#fff"/><path d="M29.777 6.116a5.554 5.554 0 0 0-10.221-.024 8.158 8.158 0 0 0-1.188-.379 6.805 6.805 0 0 1 6.293-4.237 6.803 6.803 0 0 1 6.298 4.253 8.13 8.13 0 0 0-1.182.387m-2.37 1.5a2.827 2.827 0 0 0-2.747-2.168 2.825 2.825 0 0 0-2.732 2.119 8.273 8.273 0 0 0-1.089-.817 4.122 4.122 0 0 1 3.821-2.593 4.122 4.122 0 0 1 3.835 2.63 8.34 8.34 0 0 0-1.088.83m-2.747 2.05a1.396 1.396 0 0 1-1.392-1.392A1.396 1.396 0 0 1 24.66 6.88c.77.002 1.392.625 1.393 1.394a1.395 1.395 0 0 1-1.393 1.393m8.266-8.234V0a2.824 2.824 0 0 0-2.745 2.176 8.31 8.31 0 0 0-1.088-.834c.196-.502.485-.958.85-1.342h-1.786c-.127.214-.24.438-.339.67a8.212 8.212 0 0 0-1.184-.39 5.89 5.89 0 0 1 .12-.28h-4.116c.04.086.077.175.114.265a8.126 8.126 0 0 0-1.187.38 5.594 5.594 0 0 0-.33-.646H19.45c.356.375.64.817.837 1.305a8.272 8.272 0 0 0-1.088.819A2.825 2.825 0 0 0 16.463 0v1.434c.77.001 1.392.624 1.393 1.393a1.395 1.395 0 0 1-1.393 1.393v2.704a6.801 6.801 0 0 1 6.175 3.971h4.116a6.802 6.802 0 0 1 6.172-3.971V4.219a1.396 1.396 0 0 1-1.39-1.392 1.396 1.396 0 0 1 1.39-1.393m-4.769 9.461h1.785a4.112 4.112 0 0 1 2.984-1.291V8.17a5.545 5.545 0 0 0-4.769 2.725M16.463 8.17v1.434c1.178.003 2.236.5 2.986 1.291h1.786a5.544 5.544 0 0 0-4.772-2.725"/><path d="M28.495 6.787a4.122 4.122 0 0 0-3.835-2.63 4.122 4.122 0 0 0-3.82 2.593c.385.242.75.515 1.088.816a2.824 2.824 0 0 1 5.48.05 8.31 8.31 0 0 1 1.087-.83M18.368 5.714c.408.097.805.224 1.188.38a5.553 5.553 0 0 1 10.221.023c.38-.158.775-.288 1.182-.388a6.803 6.803 0 0 0-6.298-4.252 6.805 6.805 0 0 0-6.293 4.237m6.292 1.169a1.395 1.395 0 0 0-1.392 1.392c.001.77.624 1.392 1.392 1.394a1.395 1.395 0 0 0 1.394-1.394 1.395 1.395 0 0 0-1.394-1.392m6.876-4.056c.001.769.623 1.39 1.39 1.394V1.434a1.396 1.396 0 0 0-1.39 1.392m-13.68 0a1.395 1.395 0 0 0-1.393-1.392V4.22a1.395 1.395 0 0 0 1.393-1.394m8.898 8.07h1.403a5.545 5.545 0 0 1 4.769-2.726V6.924a6.804 6.804 0 0 0-6.172 3.971m-10.29-3.971h-.001V8.17a5.545 5.545 0 0 1 4.772 2.725h1.403a6.802 6.802 0 0 0-6.174-3.971m16.462 3.971V9.604a4.113 4.113 0 0 0-2.983 1.291zm-16.463 0h2.986a4.113 4.113 0 0 0-2.986-1.291zM28.157 0h-1.403a6.594 6.594 0 0 0-.12.281c.407.1.803.23 1.184.389a5.54 5.54 0 0 1 .34-.67m4.768 0h-2.983a4.14 4.14 0 0 0-.85 1.342c.386.248.75.527 1.088.834A2.825 2.825 0 0 1 32.926 0M22.752.266A7.088 7.088 0 0 0 22.638 0h-1.403c.123.207.233.423.33.647a8.153 8.153 0 0 1 1.187-.381m-3.554 1.858c.34-.302.702-.576 1.088-.82A4.143 4.143 0 0 0 19.449 0h-2.986c1.319 0 2.422.903 2.735 2.124" fill="#fff"/><path d="M13.314 17.011a5.555 5.555 0 0 0-5.116-3.393 5.555 5.555 0 0 0-5.105 3.37 8.173 8.173 0 0 0-1.188-.38 6.806 6.806 0 0 1 6.293-4.236 6.804 6.804 0 0 1 6.298 4.252c-.407.1-.801.23-1.182.387m-2.37 1.501a2.827 2.827 0 0 0-2.746-2.169c-1.317 0-2.419.9-2.733 2.119a8.24 8.24 0 0 0-1.089-.816 4.122 4.122 0 0 1 3.822-2.594 4.123 4.123 0 0 1 3.835 2.63c-.386.248-.75.524-1.089.83m-2.746 2.051a1.395 1.395 0 0 1-1.393-1.393 1.395 1.395 0 0 1 1.393-1.393 1.396 1.396 0 0 1 1.393 1.393 1.395 1.395 0 0 1-1.393 1.393m8.265-8.233v-1.434a2.825 2.825 0 0 0-2.745 2.175 8.286 8.286 0 0 0-1.088-.834 4.12 4.12 0 0 1 .85-1.341h-1.786c-.127.214-.24.438-.339.67a8.16 8.16 0 0 0-1.184-.39 7.07 7.07 0 0 1 .12-.28H6.175c.04.087.077.176.114.265a8.15 8.15 0 0 0-1.187.381 5.625 5.625 0 0 0-.33-.646H2.986c.356.375.64.817.837 1.304a8.272 8.272 0 0 0-1.088.82A2.825 2.825 0 0 0 0 10.895v1.433c.77.002 1.392.624 1.393 1.393A1.395 1.395 0 0 1 0 15.115v2.704a6.802 6.802 0 0 1 6.175 3.972h4.116a6.804 6.804 0 0 1 6.172-3.972v-2.704a1.395 1.395 0 0 1-1.39-1.393 1.395 1.395 0 0 1 1.39-1.392m-4.769 9.46h1.785a4.112 4.112 0 0 1 2.984-1.29v-1.435a5.547 5.547 0 0 0-4.769 2.726M0 19.065V20.5c1.178.002 2.236.5 2.986 1.29h1.786A5.545 5.545 0 0 0 0 19.066"/><path d="M12.033 17.682a4.124 4.124 0 0 0-3.836-2.63 4.124 4.124 0 0 0-3.82 2.593c.385.243.749.516 1.088.817a2.825 2.825 0 0 1 2.732-2.119 2.829 2.829 0 0 1 2.748 2.17 8.28 8.28 0 0 1 1.088-.831M1.905 16.609a8.2 8.2 0 0 1 1.188.378 5.553 5.553 0 0 1 10.22.024 8.182 8.182 0 0 1 1.183-.387 6.803 6.803 0 0 0-6.298-4.252 6.804 6.804 0 0 0-6.293 4.237m6.292 1.168a1.395 1.395 0 0 0-1.392 1.393c.001.77.624 1.391 1.392 1.393a1.396 1.396 0 0 0 1.394-1.393 1.395 1.395 0 0 0-1.394-1.393m6.876-4.055c.002.768.622 1.39 1.39 1.393V12.33a1.394 1.394 0 0 0-1.39 1.392m-13.68 0A1.395 1.395 0 0 0 0 12.33v2.786a1.395 1.395 0 0 0 1.393-1.393m8.898 8.068h1.403a5.545 5.545 0 0 1 4.77-2.724V17.82a6.803 6.803 0 0 0-6.173 3.971M.001 17.82H0v1.246a5.544 5.544 0 0 1 4.772 2.724h1.403a6.802 6.802 0 0 0-6.174-3.97m16.462 3.97V20.5a4.113 4.113 0 0 0-2.983 1.29zM0 21.79h2.986A4.113 4.113 0 0 0 0 20.5zm11.694-10.895h-1.403a7.65 7.65 0 0 0-.12.281c.407.101.803.23 1.184.389.099-.232.212-.455.34-.67m4.768 0H13.48c-.365.385-.654.84-.85 1.343.386.247.75.527 1.088.833a2.826 2.826 0 0 1 2.745-2.176m-10.174.266a7.44 7.44 0 0 0-.114-.266H4.772c.123.208.234.423.33.647a8.098 8.098 0 0 1 1.187-.38m-3.554 1.857c.34-.301.702-.576 1.088-.82a4.15 4.15 0 0 0-.837-1.304H0a2.827 2.827 0 0 1 2.735 2.124" fill="#fff"/><path d="M29.777 17.011a5.556 5.556 0 0 0-5.117-3.393 5.555 5.555 0 0 0-5.104 3.37 8.2 8.2 0 0 0-1.188-.38 6.806 6.806 0 0 1 6.293-4.236 6.804 6.804 0 0 1 6.298 4.252c-.407.1-.802.23-1.182.387m-2.37 1.501a2.827 2.827 0 0 0-2.747-2.169c-1.316 0-2.418.9-2.732 2.119a8.24 8.24 0 0 0-1.089-.816 4.122 4.122 0 0 1 3.821-2.594 4.122 4.122 0 0 1 3.835 2.63 8.38 8.38 0 0 0-1.088.83m-2.747 2.051a1.396 1.396 0 0 1-1.392-1.393 1.395 1.395 0 0 1 1.392-1.393c.77.002 1.392.624 1.393 1.393a1.395 1.395 0 0 1-1.393 1.393m8.266-8.233v-1.434a2.824 2.824 0 0 0-2.745 2.175 8.31 8.31 0 0 0-1.088-.834 4.12 4.12 0 0 1 .85-1.341h-1.786c-.127.214-.24.438-.339.67a8.17 8.17 0 0 0-1.184-.39 6.93 6.93 0 0 1 .12-.28h-4.116c.04.087.077.176.114.265a8.168 8.168 0 0 0-1.187.381 5.623 5.623 0 0 0-.33-.646H19.45c.356.375.64.817.837 1.304a8.272 8.272 0 0 0-1.088.82 2.825 2.825 0 0 0-2.735-2.124v1.433c.77.002 1.392.624 1.393 1.393a1.395 1.395 0 0 1-1.393 1.393v2.704a6.802 6.802 0 0 1 6.175 3.972h4.116a6.803 6.803 0 0 1 6.172-3.972v-2.704a1.396 1.396 0 0 1-1.39-1.393 1.396 1.396 0 0 1 1.39-1.392m-4.769 9.46h1.785a4.112 4.112 0 0 1 2.984-1.29v-1.435a5.546 5.546 0 0 0-4.769 2.726m-11.694-2.726V20.5c1.178.002 2.236.5 2.986 1.29h1.786a5.545 5.545 0 0 0-4.772-2.725"/><path d="M28.495 17.682a4.123 4.123 0 0 0-3.835-2.63 4.123 4.123 0 0 0-3.82 2.593c.385.243.75.516 1.088.817a2.824 2.824 0 0 1 5.48.05 8.28 8.28 0 0 1 1.087-.83m-10.127-1.073a8.2 8.2 0 0 1 1.188.378 5.554 5.554 0 0 1 10.221.024 8.13 8.13 0 0 1 1.182-.387 6.802 6.802 0 0 0-6.298-4.252 6.804 6.804 0 0 0-6.293 4.237m6.292 1.168a1.395 1.395 0 0 0-1.392 1.393c.001.77.624 1.391 1.392 1.393a1.395 1.395 0 0 0 1.394-1.393 1.395 1.395 0 0 0-1.394-1.393m6.876-4.055c.001.768.623 1.39 1.39 1.393V12.33a1.395 1.395 0 0 0-1.39 1.392m-13.68 0a1.395 1.395 0 0 0-1.393-1.393v2.786a1.395 1.395 0 0 0 1.393-1.393m8.898 8.068h1.403a5.545 5.545 0 0 1 4.769-2.724v-1.247a6.803 6.803 0 0 0-6.172 3.971m-10.29-3.97h-.001v1.246a5.545 5.545 0 0 1 4.772 2.724h1.403a6.802 6.802 0 0 0-6.174-3.97m16.462 3.97V20.5a4.113 4.113 0 0 0-2.983 1.29zm-16.463 0h2.986a4.113 4.113 0 0 0-2.986-1.29zm11.694-10.895h-1.403a6.594 6.594 0 0 0-.12.281c.407.101.803.23 1.184.389.099-.232.212-.455.34-.67m4.768 0h-2.983c-.365.385-.654.84-.85 1.343.386.247.75.527 1.088.833a2.825 2.825 0 0 1 2.745-2.176m-10.174.266a7.875 7.875 0 0 0-.114-.266h-1.403c.123.208.233.423.33.647a8.112 8.112 0 0 1 1.187-.38m-3.554 1.857c.34-.301.702-.576 1.088-.82a4.151 4.151 0 0 0-.837-1.304h-2.986a2.826 2.826 0 0 1 2.735 2.124" fill="#fff"/><path d="M13.314 27.907a5.555 5.555 0 0 0-10.221-.024 8.13 8.13 0 0 0-1.188-.38 6.805 6.805 0 0 1 6.293-4.236 6.803 6.803 0 0 1 6.298 4.252c-.407.1-.801.23-1.182.388m-2.37 1.5a2.827 2.827 0 0 0-2.746-2.168 2.825 2.825 0 0 0-2.733 2.118 8.24 8.24 0 0 0-1.089-.816 4.123 4.123 0 0 1 3.822-2.594 4.124 4.124 0 0 1 3.835 2.63 8.48 8.48 0 0 0-1.089.83M8.198 31.46a1.395 1.395 0 0 1-1.393-1.394 1.395 1.395 0 0 1 1.393-1.392 1.394 1.394 0 0 1 1.393 1.392 1.396 1.396 0 0 1-1.393 1.394m8.265-8.234v-1.434a2.825 2.825 0 0 0-2.745 2.176 8.286 8.286 0 0 0-1.088-.834c.196-.502.485-.957.85-1.342h-1.786c-.127.214-.24.438-.339.67a8.16 8.16 0 0 0-1.184-.39 6.93 6.93 0 0 1 .12-.28H6.175c.04.087.077.176.114.266a8.15 8.15 0 0 0-1.187.38 5.66 5.66 0 0 0-.33-.646H2.986c.356.375.64.817.837 1.304a8.306 8.306 0 0 0-1.088.82A2.825 2.825 0 0 0 0 21.79v1.434c.77 0 1.392.623 1.393 1.392A1.396 1.396 0 0 1 0 26.011v2.704a6.802 6.802 0 0 1 6.175 3.971h4.116a6.803 6.803 0 0 1 6.172-3.971V26.01a1.395 1.395 0 0 1-1.39-1.393 1.395 1.395 0 0 1 1.39-1.392m-4.769 9.461h1.785a4.11 4.11 0 0 1 2.984-1.291v-1.434a5.547 5.547 0 0 0-4.769 2.725M0 29.961v1.434c1.178.002 2.236.5 2.986 1.291h1.786A5.545 5.545 0 0 0 0 29.961"/><path d="M12.033 28.577a4.124 4.124 0 0 0-3.836-2.63 4.124 4.124 0 0 0-3.82 2.594c.385.242.749.515 1.088.816a2.825 2.825 0 0 1 2.732-2.118c1.335 0 2.45.925 2.748 2.169a8.28 8.28 0 0 1 1.088-.83M1.905 27.503c.409.097.805.224 1.188.379a5.553 5.553 0 0 1 10.22.024 8.064 8.064 0 0 1 1.183-.388 6.803 6.803 0 0 0-6.298-4.252 6.805 6.805 0 0 0-6.293 4.237m6.292 1.169a1.395 1.395 0 0 0-1.392 1.392 1.396 1.396 0 0 0 1.392 1.394 1.396 1.396 0 0 0 1.394-1.394 1.395 1.395 0 0 0-1.394-1.392m6.876-4.056c.002.769.622 1.39 1.39 1.393v-2.785a1.395 1.395 0 0 0-1.39 1.392m-13.68 0A1.395 1.395 0 0 0 0 23.224v2.787a1.395 1.395 0 0 0 1.393-1.394m8.898 8.069h1.403a5.545 5.545 0 0 1 4.77-2.725v-1.246a6.803 6.803 0 0 0-6.173 3.97m-10.29-3.97H0v1.246a5.544 5.544 0 0 1 4.772 2.725h1.403a6.802 6.802 0 0 0-6.174-3.971m16.462 3.97v-1.29a4.112 4.112 0 0 0-2.983 1.29zM0 32.686h2.986A4.112 4.112 0 0 0 0 31.396zm11.694-10.894h-1.403a7.65 7.65 0 0 0-.12.28c.407.101.803.23 1.184.39a5.54 5.54 0 0 1 .34-.67m4.768 0H13.48c-.365.385-.654.84-.85 1.342.386.248.75.527 1.088.834a2.825 2.825 0 0 1 2.745-2.176m-10.174.266a7.44 7.44 0 0 0-.114-.266H4.772c.123.208.234.423.33.647a8.098 8.098 0 0 1 1.187-.381m-3.554 1.857a8.3 8.3 0 0 1 1.088-.819 4.142 4.142 0 0 0-.837-1.304H0c1.318 0 2.422.903 2.735 2.123" fill="#fff"/><path d="M29.777 27.907a5.555 5.555 0 0 0-10.221-.024 8.158 8.158 0 0 0-1.188-.38 6.805 6.805 0 0 1 6.293-4.236 6.804 6.804 0 0 1 6.298 4.252c-.407.1-.802.23-1.182.388m-2.37 1.5a2.827 2.827 0 0 0-2.747-2.168 2.825 2.825 0 0 0-2.732 2.118 8.24 8.24 0 0 0-1.089-.816 4.123 4.123 0 0 1 3.821-2.594 4.123 4.123 0 0 1 3.835 2.63 8.47 8.47 0 0 0-1.088.83M24.66 31.46a1.396 1.396 0 0 1-1.392-1.394 1.395 1.395 0 0 1 1.392-1.392c.77.001 1.392.623 1.393 1.392a1.395 1.395 0 0 1-1.393 1.394m8.266-8.234v-1.434a2.825 2.825 0 0 0-2.745 2.176 8.31 8.31 0 0 0-1.088-.834c.196-.502.485-.957.85-1.342h-1.786c-.127.214-.24.438-.339.67a8.17 8.17 0 0 0-1.184-.39 6.93 6.93 0 0 1 .12-.28h-4.116c.04.087.077.176.114.266a8.168 8.168 0 0 0-1.187.38 5.657 5.657 0 0 0-.33-.646H19.45c.356.375.64.817.837 1.304a8.306 8.306 0 0 0-1.088.82 2.826 2.826 0 0 0-2.735-2.124v1.434c.77 0 1.392.623 1.393 1.392a1.395 1.395 0 0 1-1.393 1.394v2.704a6.802 6.802 0 0 1 6.175 3.971h4.116a6.803 6.803 0 0 1 6.172-3.971V26.01a1.396 1.396 0 0 1-1.39-1.393 1.395 1.395 0 0 1 1.39-1.392m-4.769 9.461h1.785a4.11 4.11 0 0 1 2.984-1.291v-1.434a5.546 5.546 0 0 0-4.769 2.725m-11.694-2.725v1.434c1.178.002 2.236.5 2.986 1.291h1.786a5.545 5.545 0 0 0-4.772-2.725"/><path d="M28.495 28.577a4.123 4.123 0 0 0-3.835-2.63 4.123 4.123 0 0 0-3.82 2.594c.385.242.75.515 1.088.816a2.824 2.824 0 0 1 2.732-2.118c1.335 0 2.45.925 2.747 2.169a8.28 8.28 0 0 1 1.088-.83m-10.127-1.074c.408.097.805.224 1.188.379a5.553 5.553 0 0 1 10.221.024 8.04 8.04 0 0 1 1.182-.388 6.803 6.803 0 0 0-6.298-4.252 6.806 6.806 0 0 0-6.293 4.237m6.292 1.169a1.395 1.395 0 0 0-1.392 1.392 1.396 1.396 0 0 0 1.392 1.394 1.396 1.396 0 0 0 1.394-1.394 1.395 1.395 0 0 0-1.394-1.392m6.876-4.056c.001.769.623 1.39 1.39 1.393v-2.785a1.396 1.396 0 0 0-1.39 1.392m-13.68 0a1.395 1.395 0 0 0-1.393-1.393v2.787a1.395 1.395 0 0 0 1.393-1.394m8.898 8.069h1.403a5.545 5.545 0 0 1 4.769-2.725v-1.246a6.803 6.803 0 0 0-6.172 3.97m-10.29-3.97h-.001v1.246a5.545 5.545 0 0 1 4.772 2.725h1.403a6.801 6.801 0 0 0-6.174-3.971m16.462 3.97v-1.29a4.112 4.112 0 0 0-2.983 1.29zm-16.463 0h2.986a4.112 4.112 0 0 0-2.986-1.29zm11.694-10.894h-1.403a6.594 6.594 0 0 0-.12.28c.407.101.803.23 1.184.39a5.54 5.54 0 0 1 .34-.67m4.768 0h-2.983c-.365.385-.654.84-.85 1.342.386.248.75.527 1.088.834a2.825 2.825 0 0 1 2.745-2.176m-10.174.266a7.088 7.088 0 0 0-.114-.266h-1.403c.123.208.233.423.33.647a8.112 8.112 0 0 1 1.187-.381m-3.554 1.857a8.28 8.28 0 0 1 1.088-.819 4.143 4.143 0 0 0-.837-1.304h-2.986c1.319 0 2.422.903 2.735 2.123" fill="#fff"/><path d="M46.24 6.116a5.554 5.554 0 1 0-10.222-.024 8.14 8.14 0 0 0-1.187-.379 6.804 6.804 0 0 1 6.293-4.237 6.804 6.804 0 0 1 6.298 4.253 8.13 8.13 0 0 0-1.182.387m-2.37 1.5a2.827 2.827 0 0 0-2.747-2.168 2.825 2.825 0 0 0-2.732 2.119 8.277 8.277 0 0 0-1.089-.817 4.123 4.123 0 0 1 3.821-2.593 4.122 4.122 0 0 1 3.835 2.63c-.385.247-.75.524-1.088.83m-2.747 2.05a1.395 1.395 0 0 1-1.392-1.392 1.395 1.395 0 0 1 1.392-1.394c.77.002 1.392.625 1.394 1.394a1.395 1.395 0 0 1-1.394 1.393m8.266-8.234V0a2.824 2.824 0 0 0-2.745 2.176 8.31 8.31 0 0 0-1.088-.834c.196-.502.485-.958.85-1.342H44.62a5.69 5.69 0 0 0-.339.67 8.202 8.202 0 0 0-1.184-.39 5.89 5.89 0 0 1 .12-.28h-4.116c.04.086.077.175.114.265a8.098 8.098 0 0 0-1.187.38 5.541 5.541 0 0 0-.33-.646h-1.786c.355.375.64.817.837 1.305a8.269 8.269 0 0 0-1.088.819A2.826 2.826 0 0 0 32.926 0v1.434a1.395 1.395 0 0 1 1.393 1.393 1.396 1.396 0 0 1-1.393 1.393v2.704a6.801 6.801 0 0 1 6.175 3.971h4.116a6.802 6.802 0 0 1 6.172-3.971V4.219a1.395 1.395 0 0 1-1.39-1.392 1.395 1.395 0 0 1 1.39-1.393m-4.77 9.461h1.787a4.112 4.112 0 0 1 2.983-1.291V8.17a5.546 5.546 0 0 0-4.77 2.725M32.927 8.17v1.434c1.178.003 2.236.5 2.986 1.291h1.786a5.544 5.544 0 0 0-4.772-2.725"/><path d="M44.959 6.787a4.122 4.122 0 0 0-3.836-2.63 4.123 4.123 0 0 0-3.82 2.593c.385.242.749.515 1.088.816a2.824 2.824 0 0 1 5.48.05 8.313 8.313 0 0 1 1.088-.83M34.83 5.714c.408.097.805.224 1.187.38a5.554 5.554 0 0 1 10.222.023c.38-.158.775-.288 1.182-.388a6.804 6.804 0 0 0-6.298-4.252 6.805 6.805 0 0 0-6.293 4.237m6.292 1.169a1.395 1.395 0 0 0-1.392 1.392c.001.77.623 1.392 1.392 1.394a1.395 1.395 0 0 0 1.394-1.394 1.395 1.395 0 0 0-1.394-1.392M48 2.826c.001.769.622 1.39 1.39 1.394V1.434A1.395 1.395 0 0 0 48 2.826m-13.68 0a1.395 1.395 0 0 0-1.393-1.392V4.22a1.396 1.396 0 0 0 1.393-1.394m8.898 8.07h1.403a5.546 5.546 0 0 1 4.77-2.726V6.924a6.803 6.803 0 0 0-6.173 3.971m-10.29-3.971h-.001V8.17a5.545 5.545 0 0 1 4.772 2.725h1.403a6.802 6.802 0 0 0-6.174-3.971m16.462 3.971V9.604a4.113 4.113 0 0 0-2.983 1.291zm-16.463 0h2.986a4.113 4.113 0 0 0-2.986-1.291zM44.62 0h-1.403a7.085 7.085 0 0 0-.12.281c.407.1.803.23 1.184.389.099-.232.212-.456.339-.67m4.77 0h-2.984c-.365.385-.654.84-.85 1.342.386.248.75.527 1.088.834A2.825 2.825 0 0 1 49.39 0M39.215.266A8.144 8.144 0 0 0 39.101 0h-1.403c.123.207.234.423.33.647a8.126 8.126 0 0 1 1.187-.381m-3.554 1.858a8.248 8.248 0 0 1 1.088-.82A4.143 4.143 0 0 0 35.912 0h-2.986c1.318 0 2.422.903 2.735 2.124" fill="#fff"/><path d="M46.24 17.011a5.556 5.556 0 0 0-5.117-3.393 5.555 5.555 0 0 0-5.105 3.37 8.182 8.182 0 0 0-1.187-.38 6.805 6.805 0 0 1 6.293-4.236 6.805 6.805 0 0 1 6.298 4.252c-.407.1-.802.23-1.182.387m-2.37 1.501a2.827 2.827 0 0 0-2.747-2.169c-1.315 0-2.418.9-2.732 2.119a8.243 8.243 0 0 0-1.089-.816 4.123 4.123 0 0 1 3.821-2.594 4.123 4.123 0 0 1 3.835 2.63 8.38 8.38 0 0 0-1.088.83m-2.747 2.051a1.395 1.395 0 0 1-1.392-1.393 1.395 1.395 0 0 1 1.392-1.393c.77.002 1.392.624 1.394 1.393a1.395 1.395 0 0 1-1.394 1.393m8.266-8.233v-1.434a2.824 2.824 0 0 0-2.745 2.175 8.31 8.31 0 0 0-1.088-.834 4.13 4.13 0 0 1 .85-1.341H44.62c-.127.214-.24.438-.339.67a8.16 8.16 0 0 0-1.184-.39 6.93 6.93 0 0 1 .12-.28h-4.116c.04.087.077.176.114.265a8.14 8.14 0 0 0-1.187.381 5.57 5.57 0 0 0-.33-.646h-1.786c.355.375.64.817.837 1.304a8.269 8.269 0 0 0-1.088.82 2.826 2.826 0 0 0-2.735-2.124v1.433a1.395 1.395 0 0 1 1.393 1.393 1.395 1.395 0 0 1-1.393 1.393v2.704a6.802 6.802 0 0 1 6.175 3.972h4.116a6.803 6.803 0 0 1 6.172-3.972v-2.704a1.395 1.395 0 0 1-1.39-1.393 1.395 1.395 0 0 1 1.39-1.392m-4.77 9.46h1.787a4.112 4.112 0 0 1 2.983-1.29v-1.435a5.547 5.547 0 0 0-4.77 2.726m-11.693-2.726V20.5c1.178.002 2.236.5 2.986 1.29h1.786a5.545 5.545 0 0 0-4.772-2.725"/><path d="M44.959 17.682a4.123 4.123 0 0 0-3.836-2.63 4.124 4.124 0 0 0-3.82 2.593c.385.243.749.516 1.088.817a2.824 2.824 0 0 1 5.48.05 8.284 8.284 0 0 1 1.088-.83M34.83 16.609c.408.097.805.223 1.187.378a5.554 5.554 0 0 1 10.222.024 8.13 8.13 0 0 1 1.182-.387 6.803 6.803 0 0 0-6.298-4.252 6.804 6.804 0 0 0-6.293 4.237m6.292 1.168a1.395 1.395 0 0 0-1.392 1.393c.001.77.623 1.391 1.392 1.393a1.395 1.395 0 0 0 1.394-1.393 1.395 1.395 0 0 0-1.394-1.393M48 13.722c.001.768.622 1.39 1.39 1.393V12.33A1.395 1.395 0 0 0 48 13.722m-13.68 0a1.395 1.395 0 0 0-1.393-1.393v2.786a1.396 1.396 0 0 0 1.393-1.393m8.898 8.068h1.403a5.546 5.546 0 0 1 4.77-2.724v-1.247a6.803 6.803 0 0 0-6.173 3.971m-10.29-3.97h-.001v1.246a5.545 5.545 0 0 1 4.772 2.724h1.403a6.802 6.802 0 0 0-6.174-3.97m16.462 3.97V20.5a4.113 4.113 0 0 0-2.983 1.29zm-16.463 0h2.986a4.113 4.113 0 0 0-2.986-1.29zM44.62 10.895h-1.403a7.085 7.085 0 0 0-.12.281c.407.101.803.23 1.184.389a5.76 5.76 0 0 1 .339-.67m4.77 0h-2.984c-.365.385-.654.84-.85 1.343.386.247.75.527 1.088.833a2.825 2.825 0 0 1 2.745-2.176m-10.174.266a8.144 8.144 0 0 0-.114-.266h-1.403c.123.208.234.423.33.647a8.085 8.085 0 0 1 1.187-.38m-3.554 1.857a8.279 8.279 0 0 1 1.088-.82 4.151 4.151 0 0 0-.837-1.304h-2.986a2.827 2.827 0 0 1 2.735 2.124" fill="#fff"/><path d="M46.24 27.907a5.554 5.554 0 1 0-10.222-.024 8.14 8.14 0 0 0-1.187-.38 6.804 6.804 0 0 1 6.293-4.236 6.804 6.804 0 0 1 6.298 4.252c-.407.1-.802.23-1.182.388m-2.37 1.5a2.827 2.827 0 0 0-2.747-2.168 2.825 2.825 0 0 0-2.732 2.118 8.243 8.243 0 0 0-1.089-.816 4.124 4.124 0 0 1 3.821-2.594 4.123 4.123 0 0 1 3.835 2.63 8.47 8.47 0 0 0-1.088.83m-2.747 2.052a1.395 1.395 0 0 1-1.392-1.394 1.395 1.395 0 0 1 1.392-1.392c.77.001 1.392.623 1.394 1.392a1.395 1.395 0 0 1-1.394 1.394m8.266-8.234v-1.434a2.825 2.825 0 0 0-2.745 2.176 8.31 8.31 0 0 0-1.088-.834c.196-.502.485-.957.85-1.342H44.62a5.7 5.7 0 0 0-.339.67 8.16 8.16 0 0 0-1.184-.39 6.93 6.93 0 0 1 .12-.28h-4.116c.04.087.077.176.114.266a8.14 8.14 0 0 0-1.187.38 5.603 5.603 0 0 0-.33-.646h-1.786c.355.375.64.817.837 1.304a8.302 8.302 0 0 0-1.088.82 2.826 2.826 0 0 0-2.735-2.124v1.434c.769 0 1.392.623 1.393 1.392a1.396 1.396 0 0 1-1.393 1.394v2.704a6.802 6.802 0 0 1 6.175 3.971h4.116a6.802 6.802 0 0 1 6.172-3.971V26.01a1.395 1.395 0 0 1-1.39-1.393 1.395 1.395 0 0 1 1.39-1.392m-4.77 9.461h1.787a4.11 4.11 0 0 1 2.983-1.291v-1.434a5.547 5.547 0 0 0-4.77 2.725m-11.693-2.725v1.434c1.178.002 2.236.5 2.986 1.291h1.786a5.545 5.545 0 0 0-4.772-2.725"/><path d="M44.959 28.577a4.123 4.123 0 0 0-3.836-2.63 4.124 4.124 0 0 0-3.82 2.594c.385.242.749.515 1.088.816a2.824 2.824 0 0 1 2.732-2.118c1.335 0 2.45.925 2.747 2.169a8.284 8.284 0 0 1 1.089-.83M34.83 27.503c.408.097.805.224 1.187.379a5.554 5.554 0 0 1 10.222.024 8.04 8.04 0 0 1 1.182-.388 6.804 6.804 0 0 0-6.298-4.252 6.805 6.805 0 0 0-6.293 4.237m6.292 1.169a1.395 1.395 0 0 0-1.392 1.392 1.396 1.396 0 0 0 1.392 1.394 1.396 1.396 0 0 0 1.394-1.394 1.395 1.395 0 0 0-1.394-1.392M48 24.617c.001.769.622 1.39 1.39 1.393v-2.785A1.395 1.395 0 0 0 48 24.617m-13.68 0a1.395 1.395 0 0 0-1.393-1.393v2.787a1.396 1.396 0 0 0 1.393-1.394m8.898 8.069h1.403a5.546 5.546 0 0 1 4.77-2.725v-1.246a6.802 6.802 0 0 0-6.173 3.97m-10.29-3.97h-.001v1.246a5.545 5.545 0 0 1 4.772 2.725h1.403a6.801 6.801 0 0 0-6.174-3.971m16.462 3.97v-1.29a4.112 4.112 0 0 0-2.983 1.29zm-16.463 0h2.986a4.111 4.111 0 0 0-2.986-1.29zM44.62 21.792h-1.403a7.085 7.085 0 0 0-.12.28c.407.101.803.23 1.184.39.099-.232.212-.456.339-.67m4.77 0h-2.984c-.365.385-.654.84-.85 1.342.386.248.75.527 1.088.834a2.825 2.825 0 0 1 2.745-2.176m-10.174.266a8.144 8.144 0 0 0-.114-.266h-1.403c.123.208.234.423.33.647a8.085 8.085 0 0 1 1.187-.381m-3.554 1.857a8.276 8.276 0 0 1 1.088-.819 4.143 4.143 0 0 0-.837-1.304h-2.986c1.318 0 2.422.903 2.735 2.123" fill="#fff"/></svg>